<svg id="Layer_1" data-name="Layer 1" xmlns="http://www.w3.org/2000/svg" viewBox="0 0 590.53 592.14"><defs><style>.cls-1{fill:#efefef;}</style></defs><path class="cls-1" d="M665.68,696.83H137.45c-22-8.26-31.06-18.76-31.08-37.65q-.15-257.73,0-515.47c0-21.51,15.76-36.86,37.26-37.35,10.18-.23,20.38-.37,30.54.21,2.07.12,5.65,3.61,5.67,5.58.33,40.16.23,80.33.26,120.5,0,14.14,7.14,21.27,21.28,21.28H490.86c14.43,0,21.41-7.1,21.42-21.71,0-28.64-.06-57.28,0-85.92,0-13.18-4.64-31.56,2.07-38.11s25-1.71,38.26-1.89c22.31-.31,41.2,7.56,56.9,23.41,17,17.21,33.89,34.62,51.45,51.29,17.12,16.27,32.27,33.43,35.83,57.94V665.68Q690.53,690.54,665.68,696.83ZM401.7,623q107.82,0,215.63-.23c1.9,0,5.44-3.43,5.44-5.26q.42-105.22,0-210.45c0-1.84-3.53-5.27-5.42-5.28q-215.64-.37-431.27,0c-2,0-5.7,3.6-5.71,5.54q-.45,104.92,0,209.86c0,1.94,3.71,5.55,5.7,5.56C258,623.06,329.83,623,401.7,623Z" transform="translate(-106.29 -104.69)"/><path class="cls-1" d="M438.47,161.65c0,16.72.15,33.43-.21,50.13,0,1.78-2.94,5-4.56,5q-32.26.51-64.53,0c-1.52,0-4.31-2.7-4.32-4.16q-.37-51,0-102c0-1.47,2.78-4.17,4.29-4.19,21.51-.28,43-.31,64.53,0,1.63,0,4.56,3.22,4.59,5C438.62,128.23,438.47,144.94,438.47,161.65Z" transform="translate(-106.29 -104.69)"/></svg>